HIERARCHY
ROOT Hips
{
  OFFSET 74.2043 94.1881 23.3759
  CHANNELS 6 Xposition Yposition Zposition Zrotation Xrotation Yrotation
  JOINT spine
  {
    OFFSET 0 7.80059 0.448573
    CHANNELS 3 Zrotation Xrotation Yrotation
    JOINT spine1
    {
      OFFSET 0 10.1364 0
      CHANNELS 3 Zrotation Xrotation Yrotation
      JOINT spine2
      {
        OFFSET 0 9.71251 0
        CHANNELS 3 Zrotation Xrotation Yrotation
        JOINT Neck
        {
          OFFSET 0 24.9361 1.18887
          CHANNELS 3 Zrotation Xrotation Yrotation
          JOINT Head
          {
            OFFSET 0 7.53384 0
            CHANNELS 3 Zrotation Xrotation Yrotation
            End Site
            {
              OFFSET 0 18.2361 -6.01402
            }
          }
        }
        JOINT RightShoulder
        {
          OFFSET -4.08965 10.4888 -0.569457
          CHANNELS 3 Zrotation Xrotation Yrotation
          JOINT RightArm
          {
            OFFSET 0 13.757 0
            CHANNELS 3 Zrotation Xrotation Yrotation
            JOINT RightArmRoll
            {
              OFFSET 0 6.94478 0
              CHANNELS 3 Zrotation Xrotation Yrotation
              JOINT RightForeArm
              {
                OFFSET 0 20.2277 0
                CHANNELS 3 Zrotation Xrotation Yrotation
                JOINT RightForeArmRoll
                {
                  OFFSET 0 7.79312 0
                  CHANNELS 3 Zrotation Xrotation Yrotation
                  JOINT RightHand
                  {
                    OFFSET 0 15.6391 0
                    CHANNELS 3 Zrotation Xrotation Yrotation
                    End Site
                    {
                      OFFSET 0 0 0
                    }
                  }
                }
              }
            }
          }
        }
        JOINT LeftShoulder
        {
          OFFSET 4.08965 10.4888 -0.569457
          CHANNELS 3 Zrotation Xrotation Yrotation
          JOINT LeftArm
          {
            OFFSET 0 13.757 0
            CHANNELS 3 Zrotation Xrotation Yrotation
            JOINT LeftArmRoll
            {
              OFFSET 0 6.94478 0
              CHANNELS 3 Zrotation Xrotation Yrotation
              JOINT LeftForeArm
              {
                OFFSET 0 20.2277 0
                CHANNELS 3 Zrotation Xrotation Yrotation
                JOINT LeftForeArmRoll
                {
                  OFFSET 0 7.79312 0
                  CHANNELS 3 Zrotation Xrotation Yrotation
                  JOINT LeftHand
                  {
                    OFFSET 0 15.6391 0
                    CHANNELS 3 Zrotation Xrotation Yrotation
                    End Site
                    {
                      OFFSET 0 0 0
                    }
                  }
                }
              }
            }
          }
        }
      }
    }
  }
  JOINT RightUpLeg
  {
    OFFSET -6.91416 -1.26788 -1.06358
    CHANNELS 3 Zrotation Xrotation Yrotation
    JOINT RightUpLegRoll
    {
      OFFSET 0 18.3378 0
      CHANNELS 3 Zrotation Xrotation Yrotation
      JOINT RightLeg
      {
        OFFSET 0 -22.7085 0
        CHANNELS 3 Zrotation Xrotation Yrotation
        JOINT RightLegRoll
        {
          OFFSET 0 22.7828 0
          CHANNELS 3 Zrotation Xrotation Yrotation
          JOINT RightFoot
          {
            OFFSET 0 18.9629 0
            CHANNELS 3 Zrotation Xrotation Yrotation
            JOINT RightToeBase
            {
              OFFSET 0 15.852 0
              CHANNELS 3 Zrotation Xrotation Yrotation
              End Site
              {
                OFFSET 0.00671906 7.677 -0.884893
              }
            }
          }
        }
      }
    }
  }
  JOINT LeftUpLeg
  {
    OFFSET 6.91416 -1.26788 -1.06358
    CHANNELS 3 Zrotation Xrotation Yrotation
    JOINT LeftUpLegRoll
    {
      OFFSET 0 18.3379 0
      CHANNELS 3 Zrotation Xrotation Yrotation
      JOINT LeftLeg
      {
        OFFSET 0 22.7084 0
        CHANNELS 3 Zrotation Xrotation Yrotation
        JOINT LeftLegRoll
        {
          OFFSET 0 22.9934 0
          CHANNELS 3 Zrotation Xrotation Yrotation
          JOINT LeftFoot
          {
            OFFSET 0 18.7522 0
            CHANNELS 3 Zrotation Xrotation Yrotation
            JOINT LeftToeBase
            {
              OFFSET 0 15.852 0
              CHANNELS 3 Zrotation Xrotation Yrotation
              End Site
              {
                OFFSET -0.030112 7.67701 -0.884893
              }
            }
          }
        }
      }
    }
  }
}
MOTION
Frames: 6
Frame Time: 0.00208333
54.2962 93.9118 7.99118 0.207714 -2.31977 5.74504 0.00101256 1.0844 0.258238 -0.00738111 6.16908 0.530292 -0.0137246 7.81413 0.53126 -20.9089 -13.94 3.18962 20.3661 1.78926 4.44399 39.7707 -3.48436 -0.381038 166.634 34.8159 -108.788 -6.36111e-015 1.03368e-014 -0 48.5748 57.7101 -25.7609 -7.4593e-006 -4.94057e-006 -3.00114 8.02972 -4.95127 0.697425 -62.5477 -7.39236 4.71743 -105.993 27.3467 -3.78288 -3.73249e-006 8.44189e-007 8.132e-007 -3.16498 12.8309 1.34312 1.02017e-005 1.07713e-006 3.00001 -8.02991 -4.95137 -0.697656 176.103 5.21161 -0.632456 180 7.0156e-015 178.98 -178.745 15.899 178.812 1.36967e-006 -3.0466e-006 0.336534 -19.7397 71.6311 22.9135 8.12804 25.2331 -3.48413 -174.593 5.40131 4.22496 4.54188e-006 -4.6773e-006 -0.99767 -3.69027 -11.6901 0.102815 -1.38162e-006 -7.33523e-006 0.0276241 15.8977 68.3573 -19.7721 -8.13602 25.2357 3.48356 
54.2736 93.9082 7.98888 0.202506 -2.31248 5.74181 0.0020416 1.08176 0.258245 -0.0053716 6.16398 0.530045 -0.011708 7.80903 0.530979 -20.8689 -13.8658 3.26115 20.2929 1.71531 4.50866 39.8208 -3.47195 -0.3756 166.482 34.7699 -108.564 3.18055e-015 -7.15625e-015 1.59028e-015 48.5583 57.7908 -25.8138 -7.4593e-006 -4.94057e-006 -3.00114 8.02972 -4.95127 0.697425 -62.5396 -7.38413 4.71238 -105.949 27.2814 -3.77288 -3.73249e-006 8.44189e-007 8.132e-007 -3.21109 12.9028 1.35358 1.02017e-005 1.07713e-006 3.00001 -8.02991 -4.95137 -0.697656 176.123 5.22299 -0.644945 180 7.0156e-015 178.98 -178.745 15.9036 178.812 1.36967e-006 -3.0466e-006 0.336609 -19.7381 71.633 22.914 8.12804 25.2331 -3.48413 -174.572 5.41327 4.21388 4.54188e-006 -4.6773e-006 -0.997204 -3.68703 -11.6931 0.103279 -1.38162e-006 -7.33523e-006 0.0280525 15.8828 68.3499 -19.7675 -8.13602 25.2357 3.48356 
54.2541 93.9094 7.98945 0.197509 -2.30495 5.73911 0.00306809 1.0791 0.258265 -0.00336429 6.15886 0.529826 -0.00969367 7.80391 0.530726 -20.8302 -13.7926 3.33197 20.221 1.64187 4.5729 39.869 -3.45944 -0.369858 166.33 34.7206 -108.337 6.36111e-015 7.95139e-015 6.36111e-015 48.5438 57.8743 -25.8703 -7.4593e-006 -4.94057e-006 -3.00114 8.02972 -4.95127 0.697425 -62.5324 -7.37549 4.70712 -105.905 27.2158 -3.76236 -3.73249e-006 8.44189e-007 8.132e-007 -3.2581 12.9752 1.36418 1.02017e-005 1.07713e-006 3.00001 -8.02991 -4.95137 -0.697656 176.143 5.23485 -0.657218 180 7.0156e-015 178.98 -178.745 15.9089 178.812 1.36967e-006 -3.0466e-006 0.336707 -19.7368 71.6354 22.9149 8.12804 25.2331 -3.48413 -174.552 5.42583 4.20316 4.54188e-006 -4.6773e-006 -0.996747 -3.68368 -11.6965 0.103733 -1.38162e-006 -7.33523e-006 0.0284481 15.868 68.3425 -19.7629 -8.13602 25.2357 3.48356 
54.2347 93.9091 7.99346 0.192661 -2.29726 5.73678 0.00409281 1.07644 0.258294 -0.00135853 6.15374 0.529627 -0.00768106 7.79879 0.530494 -20.7924 -13.72 3.40229 20.1501 1.56879 4.63683 39.9158 -3.44685 -0.363903 166.177 34.6685 -108.11 9.54166e-015 -1.66979e-014 -1.59028e-015 48.5307 57.9599 -25.9295 -7.4593e-006 -4.94057e-006 -3.00114 8.02972 -4.95127 0.697425 -62.5258 -7.36656 4.70172 -105.86 27.1501 -3.75149 -3.73249e-006 8.44189e-007 8.132e-007 -3.30576 13.0479 1.37489 1.02017e-005 1.07713e-006 3.00001 -8.02991 -4.95137 -0.697656 176.162 5.24706 -0.669339 180 7.0156e-015 178.98 -178.745 15.9147 178.811 1.36967e-006 -3.0466e-006 0.336821 -19.7357 71.638 22.9161 8.12804 25.2331 -3.48413 -174.532 5.4388 4.19269 4.54188e-006 -4.6773e-006 -0.996298 -3.68026 -11.7002 0.104182 -1.38162e-006 -7.33523e-006 0.0288207 15.8533 68.3351 -19.7585 -8.13602 25.2357 3.48356 
54.2 93.9081 7.98845 0.187899 -2.28947 5.73465 0.00511651 1.07378 0.258328 0.000646333 6.14861 0.529439 -0.00566943 7.79366 0.530273 -20.7553 -13.6478 3.4723 20.0798 1.49592 4.70059 39.962 -3.43422 -0.357827 166.024 34.6144 -107.883 3.18055e-015 1.35174e-014 -6.36111e-015 48.5188 58.0467 -25.9904 -7.4593e-006 -4.94057e-006 -3.00114 8.02972 -4.95127 0.697425 -62.5196 -7.35746 4.69623 -105.814 27.0843 -3.74042 -3.73249e-006 8.44189e-007 8.132e-007 -3.3538 13.1208 1.38566 1.02017e-005 1.07713e-006 3.00001 -8.02991 -4.95137 -0.697656 176.182 5.25947 -0.681373 180 7.0156e-015 178.98 -178.744 15.9208 178.811 1.36967e-006 -3.0466e-006 0.336944 -19.7347 71.6408 22.9175 8.12804 25.2331 -3.48413 -174.512 5.45201 4.18236 4.54188e-006 -4.6773e-006 -0.995852 -3.67681 -11.7042 0.104626 -1.38162e-006 -7.33523e-006 0.0291802 15.8386 68.3278 -19.754 -8.13602 25.2357 3.48356 
54.1774 93.9076 7.98893 0.183157 -2.28167 5.73258 0.00613996 1.07112 0.258364 0.00265096 6.14349 0.529254 -0.00365807 7.78854 0.530055 -20.7185 -13.5757 3.5422 20.0098 1.4231 4.76431 40.0079 -3.42157 -0.351721 165.872 34.5589 -107.656 1.90833e-014 -1.59028e-014 1.11319e-014 48.5073 58.1337 -26.052 -7.4593e-006 -4.94057e-006 -3.00114 8.02972 -4.95127 0.697425 -62.5134 -7.34832 4.69073 -105.769 27.0185 -3.72932 -3.73249e-006 8.44189e-007 8.132e-007 -3.40196 13.1937 1.39645 1.02017e-005 1.07713e-006 3.00001 -8.02991 -4.95137 -0.697656 176.201 5.27192 -0.693387 180 7.0156e-015 178.98 -178.744 15.927 178.811 1.36967e-006 -3.0466e-006 0.33707 -19.7337 71.6437 22.9188 8.12804 25.2331 -3.48413 -174.493 5.46528 4.17207 4.54188e-006 -4.6773e-006 -0.995408 -3.67334 -11.7081 0.10507 -1.38162e-006 -7.33523e-006 0.0295364 15.824 68.3205 -19.7496 -8.13602 25.2357 3.48356 
